<svg xmlns="http://www.w3.org/2000/svg" viewBox="0 0 174.00 174.00" data-guides="{&quot;vertical&quot;:[],&quot;horizontal&quot;:[]}"><defs/><mask id="tSvge0fd5823d4" x="-4510.48681640625" y="-1125"/><path fill="#e5e7eb" stroke="none" fill-opacity="1" stroke-width="1" stroke-opacity="1" id="tSvg6ee963c98c" title="Path 5" d="M86.9999 1C39.5804 1 1.0002 39.5804 1.0002 87C1.0002 101.807 4.8253 116.3671 12.0792 129.2148C8.4323 142.227 4.7854 155.2391 1.1385 168.2513C0.7796 169.5338 1.1273 170.9098 2.0546 171.8633C2.7688 172.5999 3.741 173 4.7393 173C5.0384 173 5.3413 172.9626 5.6367 172.8916C19.2172 169.5276 32.7976 166.1636 46.3781 162.7996C58.8182 169.4777 72.8286 173 86.9999 173C134.4194 173 172.9996 134.4197 172.9996 87C172.9996 39.5804 134.4194 1 86.9999 1ZM130.2615 117.3468C128.4218 122.4395 119.5975 127.0872 115.3574 127.7117C111.5509 128.2688 106.735 128.5081 101.4478 126.8479C98.2434 125.8384 94.1304 124.4997 88.862 122.2525C66.7152 112.8075 52.2523 90.7878 51.1455 89.3332C50.0425 87.8787 42.1305 77.5138 42.1305 66.7863C42.1305 56.0587 47.8326 50.7828 49.8592 48.5992C51.8858 46.4155 54.2751 45.8696 55.7484 45.8696C57.2216 45.8696 58.691 45.8883 59.981 45.9481C61.3383 46.0154 63.1593 45.4359 64.9503 49.691C66.79 54.0583 71.2059 64.7858 71.7518 65.8814C72.3052 66.9732 72.6716 68.2483 71.9387 69.7028C71.2059 71.1573 70.8394 72.0659 69.7327 73.341C68.6259 74.616 67.4144 76.1827 66.4198 77.1624C65.313 78.2505 64.1651 79.4283 65.4514 81.6119C66.7376 83.7956 71.1685 90.9336 77.7344 96.7143C86.1661 104.1402 93.2816 106.4435 95.4877 107.5353C97.6938 108.6271 98.9838 108.4439 100.27 106.9894C101.5563 105.5311 105.789 100.6217 107.2584 98.4418C108.7279 96.2618 110.2011 96.6208 112.2277 97.3499C114.2543 98.0753 125.109 103.3475 127.3151 104.4393C129.5211 105.5311 130.9944 106.0771 131.5477 106.9857C132.1011 107.8905 132.1011 112.2578 130.2615 117.3468Z"/></svg>