<svg xmlns="http://www.w3.org/2000/svg" viewBox="0 0 174.03 174.00" data-guides="{&quot;vertical&quot;:[],&quot;horizontal&quot;:[]}"><defs/><mask id="tSvge0fd5823d4" x="-4452.486328125" y="-1130.4998779296875"/><path fill="#e5e7eb" stroke="none" fill-opacity="1" stroke-width="1" stroke-opacity="1" id="tSvg6755a1366b" title="Path 1" d="M88.4263 152.0725C75.5231 152.0725 69.5267 150.1891 59.1037 142.6556C52.5108 151.1308 31.6333 157.754 30.7228 146.4223C30.7228 137.9157 28.8391 130.7275 26.7043 122.88C24.1613 113.212 21.273 102.4453 21.273 86.8446C21.273 49.585 51.8515 21.554 88.081 21.554C124.3419 21.554 152.7541 50.9662 152.7541 87.1899C152.8758 122.8535 124.0953 151.8822 88.4263 152.0725ZM88.96 53.7599C71.3162 52.8496 57.5653 65.0602 54.52 84.2079C52.0084 100.0597 56.4665 119.3644 60.2653 120.3689C62.0862 120.8083 66.6698 117.1043 69.5267 114.2479C74.2508 117.5108 79.7519 119.4706 85.4752 119.9294C103.7571 120.8086 119.3783 106.8928 120.6059 88.6338C121.3205 70.3363 107.2445 54.8383 88.96 53.7912C88.96 53.7808 88.96 53.7703 88.96 53.7599ZM110.1343 1C110.031 1 109.9278 1 109.8246 1C104.3599 1 98.8951 1 93.4304 1C83.5847 1 73.739 1 63.8933 1C12.0958 1 1.0001 12.1112 1.0001 63.8832C1.0001 79.2944 1.0001 94.7056 1.0001 110.1168C1.0001 161.906 12.113 173 63.8933 173C73.739 173 83.5847 173 93.4304 173C98.8951 173 104.3599 173 109.8246 173C109.9278 173 110.031 173 110.1343 173C161.9317 173 173.0275 161.8888 173.0275 110.1168C173.0275 94.7056 173.0275 79.2944 173.0275 63.8832C173.0275 12.094 161.9145 1 110.1343 1Z"/></svg>