<?xml version="1.0" encoding="UTF-8"?>
<svg width="36" height="36" viewBox="0 0 36 36" fill="none" xmlns="http://www.w3.org/2000/svg">
  <!-- Simple horseshoe icon for map marker -->
  <defs>
    <filter id="shadow" x="-20%" y="-20%" width="140%" height="140%">
      <feDropShadow dx="0" dy="1" stdDeviation="1" flood-color="#000" flood-opacity="0.25"/>
    </filter>
  </defs>
  <g filter="url(#shadow)">
    <path d="M18 4c5.523 0 10 4.477 10 10v3.5a2.5 2.5 0 0 1-2.5 2.5h-1A2.5 2.5 0 0 1 22 17.5V14c0-2.209-1.791-4-4-4s-4 1.791-4 4v3.5A2.5 2.5 0 0 1 11.5 20h-1A2.5 2.5 0 0 1 8 17.5V14C8 8.477 12.477 4 18 4Z" fill="#059669"/>
    <path d="M18 6c4.418 0 8 3.582 8 8v3.5a1 1 0 0 1-1 1h-1a1 1 0 0 1-1-1V14c0-3.314-2.686-6-6-6s-6 2.686-6 6v3.5a1 1 0 0 1-1 1h-1a1 1 0 0 1-1-1V14c0-4.418 3.582-8 8-8Z" fill="#10B981"/>
    <circle cx="12.5" cy="22.5" r="1" fill="#FFFFFF"/>
    <circle cx="23.5" cy="22.5" r="1" fill="#FFFFFF"/>
    <circle cx="12.5" cy="18.5" r="1" fill="#FFFFFF"/>
    <circle cx="23.5" cy="18.5" r="1" fill="#FFFFFF"/>
  </g>
</svg>
