<svg xmlns="http://www.w3.org/2000/svg" viewBox="0 0 191.00 174.00" data-guides="{&quot;vertical&quot;:[],&quot;horizontal&quot;:[]}"><defs/><mask id="tSvge0fd5823d4" x="-4174.49609375" y="-1130.5001220703125"/><path fill="#e5e7eb" stroke="none" fill-opacity="1" stroke-width="1" stroke-opacity="1" id="tSvg136bdcc4656" title="Path 9" d="M186.4306 3.3645C183.2067 0.6297 178.143 0.2384 172.9073 2.3411C172.9044 2.3411 172.9016 2.3411 172.8987 2.3411C167.3923 4.5513 17.0286 69.0687 10.9074 71.7046C9.7941 72.0916 0.0708 75.7208 1.0723 83.8048C1.9664 91.0934 9.7812 94.112 10.7355 94.4603C23.4779 98.8248 36.2202 103.1893 48.9626 107.5538C51.4988 115.999 60.8481 147.1569 62.9157 153.8133C64.2053 157.9629 66.3073 163.4153 69.9912 164.5376C73.2237 165.7846 76.439 164.6451 78.5195 163.0111C86.3099 155.7827 94.1004 148.5544 101.8908 141.3261C114.4669 151.1373 127.0431 160.9485 139.6193 170.7597C139.9187 170.9389 140.2182 171.118 140.5177 171.2972C143.0796 172.4324 145.5341 173 147.8768 173C149.6865 173 151.4231 172.6603 153.0824 171.9809C158.735 169.6589 160.996 164.271 161.2324 163.6604C170.6262 114.8165 180.02 65.9727 189.4138 17.1289C191.1332 9.3028 188.7432 5.321 186.4306 3.3645ZM82.6762 112.7912C78.3777 124.2579 74.0791 135.7246 69.7805 147.1913C65.482 132.8579 61.1834 118.5246 56.8849 104.1912C89.8405 79.8245 122.7961 55.4577 155.7518 31.091C131.3932 58.3244 107.0347 85.5578 82.6762 112.7912Z"/></svg>